<svg width="64" height="66" viewBox="0 0 64 66" fill="none" xmlns="http://www.w3.org/2000/svg">
<path d="M31.1942 10.5206C31.7075 10.2947 32.2923 10.2947 32.8055 10.5206L50.2528 18.1973C51.0597 18.5525 51.539 19.3944 51.4325 20.2696L49.1571 38.9571C48.9454 40.6956 48.0894 42.2912 46.7587 43.4297L33.3007 54.9444C32.5521 55.5848 31.4486 55.5848 30.7001 54.9444L17.2411 43.4297C15.9104 42.2912 15.0543 40.6955 14.8427 38.9571L12.5673 20.2696C12.4608 19.3943 12.9409 18.5524 13.7479 18.1973L31.1942 10.5206Z" stroke="#33363F" stroke-width="2" stroke-linecap="round"/>
<path d="M24.0588 33L31.5633 40.7046C31.7871 40.9343 32.1662 40.897 32.3408 40.628L42.5882 24.847" stroke="#33363F" stroke-width="2" stroke-linecap="round"/>
</svg>
