<?xml version="1.0" encoding="UTF-8"?>
<svg version="1.1" xmlns="http://www.w3.org/2000/svg" width="20" height="20">
<path d="M0 0 C1.9375 0.8125 1.9375 0.8125 4 2 C4.33 2.99 4.66 3.98 5 5 C8.00847418 6.22520264 8.00847418 6.22520264 11 7 C10.53721939 9.15964285 10.01661849 10.96780167 9 12.9375 C7.86916007 15.26985735 7.42457928 17.45252434 7 20 C6.4225 19.835 5.845 19.67 5.25 19.5 C1.60994097 18.69109799 -1.47291292 18.99226083 -5 20 C-5.185625 18.88625 -5.185625 18.88625 -5.375 17.75 C-5.96084173 15.17229638 -6.7984069 13.32808664 -8 11 C-8.36784131 9.6757713 -8.71202981 8.34386088 -9 7 C-7.6078125 6.6596875 -7.6078125 6.6596875 -6.1875 6.3125 C-2.49280817 4.7911563 -1.67517239 3.53647504 0 0 Z " fill="#3B3D46" transform="translate(9,0)"/>
<path d="M0 0 C0.66 0 1.32 0 2 0 C2.33 1.32 2.66 2.64 3 4 C4.65 4 6.3 4 8 4 C8 4.66 8 5.32 8 6 C7.01 6.495 7.01 6.495 6 7 C5.34444881 9.52733235 5.34444881 9.52733235 5 12 C2.36 12 -0.28 12 -3 12 C-3.12375 11.195625 -3.2475 10.39125 -3.375 9.5625 C-3.684375 8.2940625 -3.684375 8.2940625 -4 7 C-4.66 6.67 -5.32 6.34 -6 6 C-6 5.34 -6 4.68 -6 4 C-4.35 4 -2.7 4 -1 4 C-0.67 2.68 -0.34 1.36 0 0 Z " fill="#F0F0F1" transform="translate(9,4)"/>
</svg>
