<?xml version="1.0" standalone="no"?>
<!DOCTYPE svg PUBLIC "-//W3C//DTD SVG 20010904//EN"
 "http://www.w3.org/TR/2001/REC-SVG-20010904/DTD/svg10.dtd">
<svg version="1.0" xmlns="http://www.w3.org/2000/svg"
 width="20.000000pt" height="20.000000pt" viewBox="0 0 20.000000 20.000000"
 preserveAspectRatio="xMidYMid meet">

<g transform="translate(0.000000,20.000000) scale(0.100000,-0.100000)"
fill="#000000" stroke="none">
<path d="M78 165 c-6 -14 -23 -27 -39 -30 -32 -7 -37 -26 -14 -45 8 -7 15 -28
15 -46 0 -38 9 -41 44 -19 21 14 24 14 36 0 22 -26 40 -18 40 19 0 18 7 39 15
46 24 20 18 40 -14 46 -17 4 -33 16 -40 30 -14 31 -28 30 -43 -1z m73 -45 c23
0 25 -13 3 -31 -9 -7 -14 -22 -11 -36 5 -27 4 -27 -23 -11 -16 10 -24 10 -40
0 -18 -11 -20 -10 -20 12 0 13 -7 29 -15 36 -21 18 -19 28 8 32 12 2 26 13 32
26 l10 22 18 -25 c10 -14 27 -25 38 -25z"/>
</g>
</svg>
